<svg width="27" height="29" viewBox="0 0 27 29" fill="none" xmlns="http://www.w3.org/2000/svg">
<path d="M13.5 1.8125C8.84197 1.8125 5.0625 5.46639 5.0625 9.96875C5.0625 17.2188 13.5 27.1875 13.5 27.1875C13.5 27.1875 21.9375 17.2188 21.9375 9.96875C21.9375 5.46639 18.158 1.8125 13.5 1.8125ZM13.5 14.5C12.8325 14.5 12.18 14.2874 11.625 13.8891C11.0699 13.4908 10.6374 12.9246 10.3819 12.2622C10.1265 11.5998 10.0596 10.871 10.1898 10.1678C10.3201 9.46462 10.6415 8.8187 11.1135 8.31174C11.5855 7.80477 12.1869 7.45952 12.8416 7.31965C13.4963 7.17978 14.1749 7.25157 14.7916 7.52594C15.4083 7.8003 15.9354 8.26493 16.3062 8.86106C16.6771 9.45719 16.875 10.158 16.875 10.875C16.874 11.8361 16.5181 12.7575 15.8854 13.4371C15.2527 14.1167 14.3948 14.499 13.5 14.5Z" fill="#F6F2FF"/>
</svg>
