<svg width="28" height="27" viewBox="0 0 28 27" fill="none" xmlns="http://www.w3.org/2000/svg">
<mask id="path-1-outside-1_1222_20" maskUnits="userSpaceOnUse" x="-1" y="-2" width="30" height="30" fill="black">
<rect fill="white" x="-1" y="-2" width="30" height="30"/>
<path d="M3.49919 26.7286C2.14646 24.5023 1.23055 22.1773 0.751463 19.7536C0.272372 17.33 0.230099 14.9486 0.624645 12.6095C1.01919 10.2705 1.83646 8.03 3.07646 5.88818C4.34464 3.71818 6.03555 1.77363 8.14919 0.0545418L11.4042 2.04136C11.9678 2.40772 12.2215 2.85863 12.1651 3.39409C12.1087 3.92954 11.9256 4.35227 11.6156 4.66227C11.0237 5.36681 10.4601 6.29681 9.92464 7.45227C9.38919 8.60772 9.00874 9.90409 8.78328 11.3414C8.58601 12.7786 8.61419 14.3145 8.86783 15.9491C9.12146 17.5836 9.75555 19.2182 10.7701 20.8527C11.2774 21.67 11.4183 22.3886 11.1928 23.0086C10.9674 23.6005 10.5024 24.0232 9.79783 24.2768L3.49919 26.7286ZM19.1995 26.7286C17.8468 24.5023 16.9309 22.1773 16.4518 19.7536C15.9727 17.33 15.9305 14.9486 16.325 12.6095C16.7195 10.2705 17.5368 8.03 18.7768 5.88818C20.045 3.71818 21.7359 1.77363 23.8495 0.0545418L27.1045 2.04136C27.6682 2.40772 27.9218 2.85863 27.8655 3.39409C27.8091 3.92954 27.6259 4.35227 27.3159 4.66227C26.7241 5.36681 26.1605 6.29681 25.625 7.45227C25.0895 8.60772 24.7091 9.90409 24.4836 11.3414C24.2864 12.7786 24.3145 14.3145 24.5682 15.9491C24.8218 17.5836 25.4559 19.2182 26.4705 20.8527C26.9777 21.67 27.1186 22.3886 26.8932 23.0086C26.6677 23.6005 26.2027 24.0232 25.4982 24.2768L19.1995 26.7286Z"/>
</mask>
<path d="M3.49919 26.7286L2.64457 27.2479L3.08018 27.9648L3.86194 27.6605L3.49919 26.7286ZM0.751463 19.7536L1.73248 19.5597L1.73248 19.5597L0.751463 19.7536ZM0.624645 12.6095L1.61072 12.7759L1.61072 12.7759L0.624645 12.6095ZM3.07646 5.88818L2.21308 5.38361L2.21104 5.38714L3.07646 5.88818ZM8.14919 0.0545418L8.67019 -0.799014L8.06671 -1.16737L7.51821 -0.721256L8.14919 0.0545418ZM11.4042 2.04136L11.9492 1.20291L11.9373 1.19519L11.9252 1.1878L11.4042 2.04136ZM12.1651 3.39409L11.1706 3.2894L11.1706 3.2894L12.1651 3.39409ZM11.6156 4.66227L10.9085 3.95516L10.8778 3.98585L10.8499 4.01908L11.6156 4.66227ZM9.92464 7.45227L9.01733 7.03181L9.01733 7.03181L9.92464 7.45227ZM8.78328 11.3414L7.79536 11.1864L7.79388 11.1959L7.79257 11.2054L8.78328 11.3414ZM8.86783 15.9491L9.856 15.7958L9.856 15.7958L8.86783 15.9491ZM10.7701 20.8527L11.6197 20.3254L11.6197 20.3254L10.7701 20.8527ZM11.1928 23.0086L12.1273 23.3646L12.13 23.3575L12.1326 23.3504L11.1928 23.0086ZM9.79783 24.2768L9.45911 23.3359L9.44704 23.3403L9.43508 23.3449L9.79783 24.2768ZM4.35381 26.2094C3.05861 24.0777 2.18762 21.8622 1.73248 19.5597L-0.229554 19.9476C0.27349 22.4924 1.23431 24.9268 2.64457 27.2479L4.35381 26.2094ZM1.73248 19.5597C1.27588 17.2499 1.23714 14.9906 1.61072 12.7759L-0.361426 12.4432C-0.776942 14.9066 -0.731138 17.4101 -0.229554 19.9476L1.73248 19.5597ZM1.61072 12.7759C1.98452 10.5597 2.75916 8.43211 3.94189 6.38922L2.21104 5.38714C0.913766 7.62788 0.0538576 9.98118 -0.361426 12.4432L1.61072 12.7759ZM3.93983 6.39275C5.14256 4.33475 6.7518 2.48008 8.78017 0.830339L7.51821 -0.721256C5.3193 1.06719 3.54673 3.1016 2.21309 5.38361L3.93983 6.39275ZM7.62819 0.908098L10.8832 2.89491L11.9252 1.1878L8.67019 -0.799014L7.62819 0.908098ZM10.8592 2.8798C11.2011 3.10203 11.1772 3.22709 11.1706 3.2894L13.1596 3.49877C13.2658 2.49017 12.7346 1.71341 11.9492 1.20291L10.8592 2.8798ZM11.1706 3.2894C11.1326 3.65062 11.0221 3.8415 10.9085 3.95516L12.3227 5.36938C12.829 4.86304 13.0849 4.20846 13.1596 3.49877L11.1706 3.2894ZM10.8499 4.01908C10.1841 4.81159 9.57684 5.82445 9.01733 7.03181L10.832 7.87273C11.3434 6.76917 11.8633 5.92204 12.3813 5.30546L10.8499 4.01908ZM9.01733 7.03181C8.43771 8.28258 8.03321 9.6701 7.79536 11.1864L9.7712 11.4963C9.98426 10.1381 10.3407 8.93286 10.832 7.87273L9.01733 7.03181ZM7.79257 11.2054C7.58042 12.7511 7.61319 14.3852 7.87965 16.1024L9.856 15.7958C9.61519 14.2438 9.5916 12.8062 9.77399 11.4773L7.79257 11.2054ZM7.87965 16.1024C8.15696 17.8895 8.84651 19.6498 9.92046 21.3801L11.6197 20.3254C10.6646 18.7865 10.086 17.2777 9.856 15.7958L7.87965 16.1024ZM9.92046 21.3801C10.343 22.0609 10.3323 22.449 10.253 22.6669L12.1326 23.3504C12.5043 22.3283 12.2117 21.2791 11.6197 20.3254L9.92046 21.3801ZM10.2583 22.6526C10.1559 22.9215 9.94446 23.1612 9.45911 23.3359L10.1365 25.2177C11.0603 24.8852 11.7788 24.2794 12.1273 23.3646L10.2583 22.6526ZM9.43508 23.3449L3.13644 25.7967L3.86194 27.6605L10.1606 25.2087L9.43508 23.3449ZM19.1995 26.7286L18.3449 27.2479L18.7805 27.9648L19.5623 27.6605L19.1995 26.7286ZM16.4518 19.7536L17.4328 19.5597L17.4328 19.5597L16.4518 19.7536ZM16.325 12.6095L17.3111 12.7759L17.3111 12.7759L16.325 12.6095ZM18.7768 5.88818L17.9134 5.38361L17.9114 5.38714L18.7768 5.88818ZM23.8495 0.0545418L24.3705 -0.799014L23.7671 -1.16737L23.2186 -0.721256L23.8495 0.0545418ZM27.1045 2.04136L27.6495 1.20291L27.6376 1.19519L27.6255 1.1878L27.1045 2.04136ZM27.8655 3.39409L26.8709 3.2894L26.8709 3.2894L27.8655 3.39409ZM27.3159 4.66227L26.6088 3.95516L26.5781 3.98585L26.5502 4.01908L27.3159 4.66227ZM25.625 7.45227L24.7177 7.03181L24.7177 7.03181L25.625 7.45227ZM24.4836 11.3414L23.4957 11.1864L23.4942 11.1959L23.4929 11.2054L24.4836 11.3414ZM24.5682 15.9491L25.5564 15.7958L25.5564 15.7958L24.5682 15.9491ZM26.4705 20.8527L27.3201 20.3254L27.3201 20.3254L26.4705 20.8527ZM26.8932 23.0086L27.8277 23.3646L27.8304 23.3575L27.833 23.3504L26.8932 23.0086ZM25.4982 24.2768L25.1595 23.3359L25.1474 23.3403L25.1354 23.3449L25.4982 24.2768ZM20.0542 26.2094C18.759 24.0777 17.888 21.8622 17.4328 19.5597L15.4708 19.9476C15.9738 22.4924 16.9347 24.9268 18.3449 27.2479L20.0542 26.2094ZM17.4328 19.5597C16.9762 17.2499 16.9375 14.9906 17.3111 12.7759L15.3389 12.4432C14.9234 14.9066 14.9692 17.4101 15.4708 19.9476L17.4328 19.5597ZM17.3111 12.7759C17.6849 10.5597 18.4595 8.43211 19.6422 6.38922L17.9114 5.38714C16.6141 7.62788 15.7542 9.98118 15.3389 12.4432L17.3111 12.7759ZM19.6402 6.39275C20.8429 4.33475 22.4522 2.48008 24.4805 0.830339L23.2186 -0.721256C21.0197 1.06719 19.2471 3.1016 17.9134 5.38361L19.6402 6.39275ZM23.3285 0.908098L26.5835 2.89491L27.6255 1.1878L24.3705 -0.799014L23.3285 0.908098ZM26.5596 2.8798C26.9015 3.10203 26.8775 3.22709 26.8709 3.2894L28.86 3.49877C28.9661 2.49017 28.4349 1.71341 27.6495 1.20291L26.5596 2.8798ZM26.8709 3.2894C26.8329 3.65062 26.7225 3.8415 26.6088 3.95516L28.023 5.36938C28.5294 4.86304 28.7853 4.20846 28.86 3.49877L26.8709 3.2894ZM26.5502 4.01908C25.8845 4.81159 25.2772 5.82445 24.7177 7.03181L26.5323 7.87273C27.0437 6.76917 27.5637 5.92204 28.0816 5.30546L26.5502 4.01908ZM24.7177 7.03181C24.1381 8.28258 23.7336 9.6701 23.4957 11.1864L25.4716 11.4963C25.6846 10.1381 26.041 8.93286 26.5323 7.87273L24.7177 7.03181ZM23.4929 11.2054C23.2808 12.7511 23.3135 14.3852 23.58 16.1024L25.5564 15.7958C25.3155 14.2438 25.292 12.8062 25.4743 11.4773L23.4929 11.2054ZM23.58 16.1024C23.8573 17.8895 24.5469 19.6498 25.6208 21.3801L27.3201 20.3254C26.365 18.7865 25.7863 17.2777 25.5564 15.7958L23.58 16.1024ZM25.6208 21.3801C26.0434 22.0609 26.0326 22.449 25.9534 22.6669L27.833 23.3504C28.2046 22.3283 27.9121 21.2791 27.3201 20.3254L25.6208 21.3801ZM25.9587 22.6526C25.8563 22.9215 25.6448 23.1612 25.1595 23.3359L25.8369 25.2177C26.7606 24.8852 27.4792 24.2794 27.8277 23.3646L25.9587 22.6526ZM25.1354 23.3449L18.8368 25.7967L19.5623 27.6605L25.8609 25.2087L25.1354 23.3449Z" fill="#DDD5F3" mask="url(#path-1-outside-1_1222_20)"/>
</svg>
